<svg width="233" height="47" viewBox="0 0 233 47" fill="none" xmlns="http://www.w3.org/2000/svg">
<path d="M64.2562 29.8474C65.4841 29.8474 66.6339 29.5907 67.7055 29.0772C68.7771 28.5637 69.726 27.8269 70.552 26.8669L73.7334 30.0149C72.6172 31.3321 71.1883 32.3814 69.4469 33.1628C67.7278 33.9442 65.9529 34.3349 64.1222 34.3349C62.3585 34.3349 60.7064 34.0223 59.1659 33.3972C57.6478 32.7721 56.3306 31.9237 55.2143 30.8521C54.098 29.7804 53.2161 28.5079 52.5687 27.0344C51.9436 25.5609 51.631 23.9758 51.631 22.279C51.631 20.5823 51.9547 18.9971 52.6022 17.5236C53.2496 16.0278 54.1315 14.7441 55.2478 13.6725C56.3641 12.6008 57.6813 11.7524 59.1994 11.1273C60.7399 10.5022 62.3808 10.1896 64.1222 10.1896C65.9976 10.1896 67.8171 10.5915 69.5809 11.3952C71.3446 12.1766 72.7734 13.2371 73.8674 14.5766L70.5855 17.825C69.7595 16.798 68.7883 16.0167 67.672 15.4808C66.5557 14.9227 65.3725 14.6436 64.1222 14.6436C63.0729 14.6436 62.0794 14.8446 61.1418 15.2464C60.2264 15.626 59.4338 16.1618 58.7641 16.8539C58.0943 17.5236 57.5696 18.3274 57.1901 19.265C56.8106 20.1804 56.6208 21.185 56.6208 22.279C56.6208 23.3506 56.8106 24.3553 57.1901 25.293C57.592 26.2083 58.1278 27.0009 58.7976 27.6707C59.4896 28.3404 60.2934 28.8763 61.2087 29.2781C62.1464 29.6577 63.1622 29.8474 64.2562 29.8474ZM76.271 34V10.558L80.8589 9.55336V17.9255C81.5287 17.3674 82.2654 16.9432 83.0692 16.6529C83.8952 16.3627 84.7882 16.2176 85.7482 16.2176C87.7576 16.2176 89.4097 16.865 90.7045 18.1599C91.9994 19.4548 92.6469 21.1181 92.6469 23.1497V34H88.059V23.8195C88.059 22.7255 87.7241 21.8437 87.0543 21.1739C86.4069 20.5041 85.5361 20.1692 84.4422 20.1692C83.6831 20.1692 82.991 20.3255 82.3659 20.6381C81.7631 20.9283 81.2608 21.3525 80.8589 21.9106V34H76.271ZM96.1221 34V16.5525H100.71V18.4613C101.268 17.7022 101.938 17.1329 102.719 16.7534C103.523 16.3515 104.405 16.1506 105.365 16.1506C105.811 16.1729 106.18 16.2176 106.47 16.2846C106.783 16.3292 107.051 16.4185 107.274 16.5525V20.5711C106.939 20.4148 106.571 20.3032 106.169 20.2362C105.767 20.1469 105.354 20.1023 104.93 20.1023C104.037 20.1023 103.211 20.3255 102.451 20.772C101.715 21.2185 101.134 21.866 100.71 22.7144V34H96.1221ZM108.106 25.293C108.106 24.0204 108.34 22.8372 108.809 21.7432C109.3 20.6269 109.959 19.6669 110.785 18.8632C111.633 18.0371 112.626 17.3897 113.765 16.9208C114.904 16.452 116.12 16.2176 117.415 16.2176C118.71 16.2176 119.927 16.452 121.066 16.9208C122.204 17.3897 123.187 18.0371 124.013 18.8632C124.861 19.6669 125.52 20.6269 125.988 21.7432C126.48 22.8372 126.725 24.0204 126.725 25.293C126.725 26.5655 126.48 27.76 125.988 28.8763C125.52 29.9702 124.861 30.9191 124.013 31.7228C123.187 32.5265 122.204 33.1628 121.066 33.6316C119.927 34.1005 118.71 34.3349 117.415 34.3349C116.12 34.3349 114.904 34.1005 113.765 33.6316C112.626 33.1628 111.633 32.5265 110.785 31.7228C109.959 30.9191 109.3 29.9702 108.809 28.8763C108.34 27.76 108.106 26.5655 108.106 25.293ZM117.415 30.3497C118.755 30.3497 119.893 29.8586 120.831 28.8763C121.769 27.8939 122.238 26.6995 122.238 25.293C122.238 23.8641 121.769 22.6585 120.831 21.6762C119.893 20.6939 118.755 20.2027 117.415 20.2027C116.076 20.2027 114.937 20.6939 113.999 21.6762C113.062 22.6585 112.593 23.8641 112.593 25.293C112.593 26.6995 113.062 27.8939 113.999 28.8763C114.937 29.8586 116.076 30.3497 117.415 30.3497ZM129.545 34V16.5525H134.133V17.9255C134.803 17.3674 135.54 16.9432 136.343 16.6529C137.169 16.3627 138.062 16.2176 139.023 16.2176C141.032 16.2176 142.684 16.865 143.979 18.1599C145.274 19.4548 145.921 21.1181 145.921 23.1497V34H141.333V23.8195C141.333 22.7255 140.998 21.8437 140.329 21.1739C139.681 20.5041 138.81 20.1692 137.716 20.1692C136.957 20.1692 136.265 20.3255 135.64 20.6381C135.037 20.9283 134.535 21.3525 134.133 21.9106V34H129.545ZM148.593 25.293C148.593 24.0204 148.827 22.8372 149.296 21.7432C149.787 20.6269 150.446 19.6669 151.272 18.8632C152.12 18.0371 153.114 17.3897 154.252 16.9208C155.391 16.452 156.608 16.2176 157.902 16.2176C159.197 16.2176 160.414 16.452 161.553 16.9208C162.691 17.3897 163.674 18.0371 164.5 18.8632C165.348 19.6669 166.007 20.6269 166.476 21.7432C166.967 22.8372 167.212 24.0204 167.212 25.293C167.212 26.5655 166.967 27.76 166.476 28.8763C166.007 29.9702 165.348 30.9191 164.5 31.7228C163.674 32.5265 162.691 33.1628 161.553 33.6316C160.414 34.1005 159.197 34.3349 157.902 34.3349C156.608 34.3349 155.391 34.1005 154.252 33.6316C153.114 33.1628 152.12 32.5265 151.272 31.7228C150.446 30.9191 149.787 29.9702 149.296 28.8763C148.827 27.76 148.593 26.5655 148.593 25.293ZM157.902 30.3497C159.242 30.3497 160.381 29.8586 161.318 28.8763C162.256 27.8939 162.725 26.6995 162.725 25.293C162.725 23.8641 162.256 22.6585 161.318 21.6762C160.381 20.6939 159.242 20.2027 157.902 20.2027C156.563 20.2027 155.424 20.6939 154.487 21.6762C153.549 22.6585 153.08 23.8641 153.08 25.293C153.08 26.6995 153.549 27.8939 154.487 28.8763C155.424 29.8586 156.563 30.3497 157.902 30.3497ZM188.384 25.293C188.384 26.5432 188.15 27.7153 187.681 28.8093C187.212 29.9032 186.576 30.8521 185.772 31.6558C184.968 32.4595 184.008 33.0958 182.892 33.5646C181.798 34.0112 180.626 34.2344 179.376 34.2344C178.505 34.2344 177.657 34.1116 176.831 33.866C176.004 33.6205 175.245 33.2744 174.553 32.8279V34H170.032V10.558L174.62 9.55336V17.9255C175.312 17.412 176.071 17.0213 176.898 16.7534C177.746 16.4632 178.617 16.318 179.51 16.318C180.738 16.318 181.887 16.5525 182.959 17.0213C184.053 17.4901 185.002 18.1264 185.805 18.9302C186.609 19.7339 187.234 20.6827 187.681 21.7767C188.15 22.8706 188.384 24.0427 188.384 25.293ZM178.773 20.2362C177.947 20.2362 177.177 20.3813 176.462 20.6716C175.748 20.9395 175.134 21.3413 174.62 21.8771V28.7423C175.111 29.2335 175.714 29.6242 176.429 29.9144C177.165 30.2046 177.947 30.3497 178.773 30.3497C180.202 30.3497 181.407 29.8697 182.39 28.9097C183.372 27.9274 183.863 26.7218 183.863 25.293C183.863 23.8641 183.361 22.6697 182.356 21.7097C181.374 20.7274 180.179 20.2362 178.773 20.2362ZM193.469 14.4762C192.754 14.4762 192.14 14.2194 191.627 13.7059C191.113 13.1925 190.857 12.5785 190.857 11.8641C190.857 11.1496 191.113 10.5357 191.627 10.0222C192.14 9.50871 192.754 9.25196 193.469 9.25196C194.183 9.25196 194.797 9.50871 195.311 10.0222C195.824 10.5357 196.081 11.1496 196.081 11.8641C196.081 12.5785 195.824 13.1925 195.311 13.7059C194.797 14.2194 194.183 14.4762 193.469 14.4762ZM195.78 16.5525V34H191.192V16.5525H195.78ZM199.368 34V10.558L203.955 9.55336V23.9199L211.49 16.5525H216.681L208.51 24.5562L217.183 34H211.323L203.955 26.0297V34H199.368ZM216.862 31.9237L219.139 28.8763C220.166 29.546 221.138 30.0484 222.053 30.3832C222.968 30.6958 223.884 30.8521 224.799 30.8521C225.826 30.8521 226.641 30.6846 227.244 30.3497C227.869 30.0149 228.181 29.5683 228.181 29.0102C228.181 28.5637 228.003 28.2065 227.645 27.9386C227.311 27.6707 226.764 27.4809 226.005 27.3693L222.656 26.8669C220.937 26.599 219.619 26.0409 218.704 25.1925C217.811 24.3441 217.364 23.2167 217.364 21.8102C217.364 20.1357 218.023 18.7962 219.34 17.7915C220.658 16.7869 222.421 16.2846 224.632 16.2846C225.904 16.2846 227.143 16.4743 228.349 16.8539C229.554 17.2111 230.704 17.7469 231.798 18.4613L229.588 21.4083C228.628 20.8502 227.712 20.4371 226.842 20.1692C225.971 19.879 225.089 19.7339 224.196 19.7339C223.37 19.7339 222.7 19.8902 222.187 20.2027C221.696 20.5153 221.45 20.9283 221.45 21.4418C221.45 21.9106 221.629 22.279 221.986 22.5469C222.365 22.7925 222.979 22.9711 223.828 23.0827L227.177 23.5851C228.873 23.8306 230.179 24.3888 231.095 25.2595C232.032 26.1302 232.501 27.2353 232.501 28.5749C232.501 29.4009 232.3 30.1711 231.899 30.8856C231.519 31.5777 230.994 32.1805 230.325 32.6939C229.655 33.2074 228.851 33.6093 227.913 33.8995C226.976 34.1898 225.96 34.3349 224.866 34.3349C223.281 34.3349 221.796 34.134 220.412 33.7321C219.028 33.3079 217.844 32.7051 216.862 31.9237Z" fill="black"/>
<path d="M25.3483 21.0881L41.1601 21.0287C41.767 21.0264 42.145 20.3694 41.8419 19.8437L34.0699 6.36053C33.7867 5.86907 33.2618 5.56709 32.6945 5.56922L17.0205 5.62808C16.4164 5.63035 16.0381 6.28211 16.3357 6.80785L23.9668 20.2862C24.2484 20.7836 24.7767 21.0902 25.3483 21.0881Z" fill="url(#paint0_linear)"/>
<path d="M21.9492 22.7009L14.1453 36.4528C13.8458 36.9806 13.0878 36.988 12.7781 36.466L4.83714 23.0818C4.54769 22.5939 4.54184 21.9884 4.82181 21.495L12.5577 7.86301C12.8559 7.33756 13.6094 7.32737 13.9217 7.84456L21.9276 21.1037C22.2231 21.593 22.2313 22.2038 21.9492 22.7009Z" fill="#DFDFDF"/>
<path d="M34.1667 38.3884L41.8322 24.5588C42.1264 24.0281 41.7375 23.3775 41.1307 23.3854L25.5693 23.588C25.0021 23.5953 24.4823 23.9061 24.2073 24.4022L16.6086 38.1112C16.3157 38.6396 16.6999 39.2879 17.304 39.2847L32.7925 39.2028C33.3641 39.1998 33.8896 38.8884 34.1667 38.3884Z" fill="url(#paint1_linear)"/>
<defs>
<linearGradient id="paint0_linear" x1="29.0673" y1="5.58284" x2="29.1254" y2="21.0739" gradientUnits="userSpaceOnUse">
<stop/>
<stop offset="1"/>
</linearGradient>
<linearGradient id="paint1_linear" x1="32.247" y1="20.7076" x2="38.728" y2="38.886" gradientUnits="userSpaceOnUse">
<stop stop-color="#72F551"/>
<stop offset="1" stop-color="#51F5BA"/>
</linearGradient>
</defs>
</svg>
