<svg width="24" height="24" viewBox="0 0 24 24" fill="none" xmlns="http://www.w3.org/2000/svg">
<path d="M23.142 5.13513C22.3277 5.49594 21.453 5.73973 20.5334 5.84992C21.4822 5.28218 22.1921 4.38861 22.5305 3.33596C21.6391 3.86546 20.6634 4.23817 19.646 4.43789C18.9618 3.70736 18.0556 3.22316 17.068 3.06045C16.0804 2.89775 15.0668 3.06564 14.1844 3.53806C13.302 4.01049 12.6003 4.76102 12.1882 5.67313C11.776 6.58523 11.6766 7.60789 11.9052 8.58232C10.0989 8.49162 8.33186 8.02214 6.71875 7.20432C5.10564 6.38651 3.68251 5.23865 2.54173 3.83524C2.15166 4.5081 1.92738 5.28823 1.92738 6.11906C1.92694 6.86701 2.11113 7.60349 2.4636 8.26318C2.81606 8.92286 3.32591 9.48535 3.94791 9.90073C3.22656 9.87778 2.52112 9.68287 1.89032 9.33221V9.39072C1.89025 10.4397 2.25311 11.4565 2.91734 12.2684C3.58157 13.0803 4.50625 13.6375 5.53449 13.8453C4.86532 14.0264 4.16375 14.053 3.48276 13.9233C3.77286 14.8259 4.33797 15.6152 5.09895 16.1807C5.85994 16.7462 6.77871 17.0595 7.72665 17.0769C6.11747 18.3402 4.13015 19.0254 2.08438 19.0224C1.72199 19.0225 1.35991 19.0013 1 18.959C3.07658 20.2941 5.49387 21.0027 7.96264 21C16.3197 21 20.8884 14.0783 20.8884 8.07523C20.8884 7.8802 20.8835 7.68322 20.8747 7.48819C21.7634 6.84553 22.5305 6.04973 23.14 5.13805L23.142 5.13513Z" fill="black"/>
</svg>
