<svg width="39" height="39" viewBox="0 0 39 39" fill="none" xmlns="http://www.w3.org/2000/svg">
<path d="M21.7912 19.5L28.7786 12.5287C29.0846 12.2228 29.2565 11.8077 29.2565 11.375C29.2565 10.9423 29.0846 10.5272 28.7786 10.2212C28.4727 9.91525 28.0576 9.74335 27.6249 9.74335C27.1922 9.74335 26.7771 9.91525 26.4712 10.2212L19.4999 17.2087L12.5287 10.2212C12.2227 9.91525 11.8076 9.74335 11.3749 9.74335C10.9422 9.74335 10.5271 9.91525 10.2212 10.2212C9.91516 10.5272 9.74325 10.9423 9.74325 11.375C9.74325 11.8077 9.91516 12.2228 10.2212 12.5287L17.2087 19.5L10.2212 26.4712C10.0688 26.6223 9.94795 26.802 9.86545 27.0001C9.78295 27.1981 9.74048 27.4105 9.74048 27.625C9.74048 27.8395 9.78295 28.0519 9.86545 28.2499C9.94795 28.448 10.0688 28.6277 10.2212 28.7787C10.3722 28.9311 10.5519 29.0519 10.75 29.1344C10.948 29.2169 11.1604 29.2594 11.3749 29.2594C11.5894 29.2594 11.8018 29.2169 11.9998 29.1344C12.1979 29.0519 12.3776 28.9311 12.5287 28.7787L19.4999 21.7912L26.4712 28.7787C26.6222 28.9311 26.8019 29.0519 27 29.1344C27.198 29.2169 27.4104 29.2594 27.6249 29.2594C27.8394 29.2594 28.0518 29.2169 28.2498 29.1344C28.4479 29.0519 28.6276 28.9311 28.7786 28.7787C28.931 28.6277 29.0519 28.448 29.1344 28.2499C29.2168 28.0519 29.2593 27.8395 29.2593 27.625C29.2593 27.4105 29.2168 27.1981 29.1344 27.0001C29.0519 26.802 28.931 26.6223 28.7786 26.4712L21.7912 19.5Z" fill="black"/>
</svg>
