<svg width="24" height="24" viewBox="0 0 24 24" fill="none" xmlns="http://www.w3.org/2000/svg">
<path fill-rule="evenodd" clip-rule="evenodd" d="M12.2276 3C7.12937 3 3 7.12937 3 12.2276C3 16.3109 5.64141 19.7597 9.3094 20.9824C9.77078 21.0631 9.9438 20.7863 9.9438 20.5441C9.9438 20.3249 9.93227 19.5982 9.93227 18.8254C7.61382 19.2522 7.01403 18.2602 6.82947 17.7412C6.72566 17.4759 6.27581 16.6569 5.88364 16.4378C5.56067 16.2647 5.09929 15.838 5.8721 15.8264C6.59878 15.8149 7.11784 16.4954 7.29085 16.7723C8.12134 18.1679 9.44782 17.7758 9.97841 17.5335C10.0591 16.9337 10.3014 16.53 10.5667 16.2993C8.51352 16.0687 6.36809 15.2728 6.36809 11.7432C6.36809 10.7397 6.72566 9.9092 7.31392 9.26326C7.22165 9.03257 6.89868 8.08674 7.4062 6.81794C7.4062 6.81794 8.17901 6.57571 9.9438 7.76377C10.682 7.55615 11.4664 7.45234 12.2507 7.45234C13.0351 7.45234 13.8194 7.55615 14.5576 7.76377C16.3224 6.56418 17.0952 6.81794 17.0952 6.81794C17.6027 8.08674 17.2798 9.03257 17.1875 9.26326C17.7758 9.9092 18.1333 10.7282 18.1333 11.7432C18.1333 15.2843 15.9764 16.0687 13.9232 16.2993C14.2577 16.5877 14.5461 17.1414 14.5461 18.0065C14.5461 19.2407 14.5346 20.2326 14.5346 20.5441C14.5346 20.7863 14.7076 21.0746 15.169 20.9824C17.0008 20.3639 18.5925 19.1866 19.7202 17.6161C20.8479 16.0456 21.4547 14.1611 21.4553 12.2276C21.4553 7.12937 17.3259 3 12.2276 3Z" fill="black"/>
</svg>
