<?xml version="1.0" standalone="no"?>
<!DOCTYPE svg PUBLIC "-//W3C//DTD SVG 20010904//EN"
 "http://www.w3.org/TR/2001/REC-SVG-20010904/DTD/svg10.dtd">
<svg version="1.0" xmlns="http://www.w3.org/2000/svg"
 width="260.000000pt" height="260.000000pt" viewBox="0 0 260.000000 260.000000"
 preserveAspectRatio="xMidYMid meet">
<metadata>
Created by potrace 1.14, written by Peter Selinger 2001-2017
</metadata>
<g transform="translate(0.000000,260.000000) scale(0.100000,-0.100000)"
fill="#000000" stroke="none">
<path d="M852 2343 c-27 -27 -38 -1 117 -275 45 -81 59 -105 85 -153 16 -27
31 -54 36 -60 4 -5 21 -35 37 -65 96 -176 209 -367 226 -382 11 -10 27 -18 36
-19 9 -1 248 0 531 0 543 2 539 2 542 47 1 10 -24 62 -54 114 -30 52 -98 169
-150 260 -52 91 -121 210 -153 265 -32 55 -69 120 -83 145 -42 75 -68 115 -87
130 -16 13 -93 15 -539 15 l-521 0 -23 -22z"/>
<path d="M624 2242 c-11 -6 -94 -149 -356 -612 -175 -309 -169 -296 -163 -331
3 -17 76 -149 162 -292 86 -144 165 -278 175 -297 59 -103 183 -306 192 -312
6 -4 21 -8 33 -8 27 0 10 -28 450 750 61 108 93 175 93 195 0 21 -75 153 -260
460 -143 237 -268 436 -277 443 -19 14 -33 15 -49 4z"/>
<path d="M1595 1230 c-120 -3 -208 -9 -219 -16 -10 -6 -31 -33 -46 -60 -163
-291 -470 -848 -474 -862 -7 -21 2 -36 29 -49 21 -10 963 -9 1021 2 17 3 38
13 47 23 31 35 507 906 507 928 0 13 -9 28 -20 34 -20 10 -423 11 -845 0z"/>
</g>
</svg>
